<svg width="17" height="17" viewBox="0 0 17 17" fill="none" xmlns="http://www.w3.org/2000/svg">
<path d="M10.2918 6.70762L6.70762 10.2918C6.2472 9.83137 5.96387 9.20095 5.96387 8.4997C5.96387 7.0972 7.0972 5.96387 8.4997 5.96387C9.20095 5.96387 9.83137 6.2472 10.2918 6.70762Z" stroke="#97ADB8" stroke-width="1.5" stroke-linecap="round" stroke-linejoin="round"/>
<path d="M12.6229 4.0866C11.3833 3.1516 9.96663 2.6416 8.50038 2.6416C5.99996 2.6416 3.66954 4.11493 2.04746 6.66493C1.40996 7.66368 1.40996 9.34244 2.04746 10.3412C2.60704 11.2195 3.25871 11.9774 3.96704 12.5866" stroke="#97ADB8" stroke-width="1.5" stroke-linecap="round" stroke-linejoin="round"/>
<path d="M5.96387 13.8339C6.77137 14.1739 7.62845 14.358 8.4997 14.358C11.0001 14.358 13.3305 12.8847 14.9526 10.3347C15.5901 9.33594 15.5901 7.65719 14.9526 6.65844C14.7189 6.2901 14.4639 5.94302 14.2018 5.61719" stroke="#97ADB8" stroke-width="1.5" stroke-linecap="round" stroke-linejoin="round"/>
<path d="M10.9858 8.99609C10.8016 9.99484 9.98703 10.8094 8.98828 10.9936" stroke="#97ADB8" stroke-width="1.5" stroke-linecap="round" stroke-linejoin="round"/>
<path d="M6.70824 10.292L1.41699 15.5832" stroke="#97ADB8" stroke-width="1.5" stroke-linecap="round" stroke-linejoin="round"/>
<path d="M15.5832 1.41699L10.292 6.70824" stroke="#97ADB8" stroke-width="1.5" stroke-linecap="round" stroke-linejoin="round"/>
</svg>
