<svg width="17" height="17" viewBox="0 0 17 17" fill="none" xmlns="http://www.w3.org/2000/svg">
<path d="M10.2921 6.70859L6.70792 10.2928C6.24751 9.83234 5.96417 9.20193 5.96417 8.50068C5.96417 7.09818 7.09751 5.96484 8.50001 5.96484C9.20126 5.96484 9.83167 6.24818 10.2921 6.70859Z" stroke="#52DBB7" stroke-width="1.5" stroke-linecap="round" stroke-linejoin="round"/>
<path d="M12.6225 4.08758C11.3829 3.15258 9.96626 2.64258 8.50001 2.64258C5.99959 2.64258 3.66918 4.11591 2.04709 6.66591C1.40959 7.66466 1.40959 9.34341 2.04709 10.3422C2.60668 11.2205 3.25834 11.9784 3.96668 12.5876" stroke="#52DBB7" stroke-width="1.5" stroke-linecap="round" stroke-linejoin="round"/>
<path d="M5.96417 13.8339C6.77167 14.1739 7.62876 14.358 8.50001 14.358C11.0004 14.358 13.3308 12.8847 14.9529 10.3347C15.5904 9.33594 15.5904 7.65719 14.9529 6.65844C14.7192 6.2901 14.4642 5.94302 14.2021 5.61719" stroke="#52DBB7" stroke-width="1.5" stroke-linecap="round" stroke-linejoin="round"/>
<path d="M10.9863 8.99609C10.8021 9.99484 9.98752 10.8094 8.98877 10.9936" stroke="#52DBB7" stroke-width="1.5" stroke-linecap="round" stroke-linejoin="round"/>
<path d="M6.70794 10.293L1.41669 15.5842" stroke="#52DBB7" stroke-width="1.5" stroke-linecap="round" stroke-linejoin="round"/>
<path d="M15.5833 1.41602L10.2921 6.70727" stroke="#52DBB7" stroke-width="1.5" stroke-linecap="round" stroke-linejoin="round"/>
</svg>
