<svg width="25" height="25" viewBox="0 0 25 25" fill="none" xmlns="http://www.w3.org/2000/svg">
<path d="M24.5006 12.7769C24.5154 11.9173 24.4265 11.0576 24.2388 10.2227H12.5V14.8618H19.3921C19.1302 16.507 18.2063 17.9695 16.8378 18.918L16.8131 19.0712L20.5235 21.9466L20.7804 21.9713C23.137 19.7925 24.5006 16.5861 24.5006 12.7769Z" fill="#4285F4"/>
<path d="M12.4987 25.0001C15.8731 25.0001 18.709 23.8885 20.7791 21.9715L16.8365 18.9133C15.5569 19.773 14.0401 20.2078 12.5036 20.1633C9.26261 20.1435 6.39708 18.0487 5.38921 14.9658L5.24099 14.9806L1.38241 17.9647L1.33301 18.1031C3.44757 22.3371 7.77056 25.005 12.4987 25.0001Z" fill="#34A853"/>
<path d="M5.38521 14.9702C5.11348 14.1748 4.9702 13.3398 4.9702 12.495C4.97514 11.6551 5.11348 10.8202 5.37533 10.0198L5.37039 9.85675L1.46241 6.82324L1.33395 6.88253C-0.444651 10.415 -0.444651 14.575 1.33395 18.1075L5.38521 14.9702Z" fill="#FBBC05"/>
<path d="M12.5017 4.83262C14.2951 4.80298 16.0243 5.46995 17.3336 6.69521L20.8612 3.25164C18.5984 1.1272 15.5995 -0.033833 12.4968 0.000750976C7.76866 0.000750976 3.44567 2.66371 1.32617 6.89283L5.36755 10.0301C6.38531 6.94718 9.25577 4.85238 12.5017 4.83262Z" fill="#EB4335"/>
</svg>
